<svg width="620" height="1195" viewBox="0 0 620 1195" fill="none" xmlns="http://www.w3.org/2000/svg">
<g clip-path="url(#clip0_7_1829)">
<path d="M610 0H10C4.47715 0 0 4.47714 0 9.99999V1184.59C0 1190.11 4.47714 1194.59 9.99999 1194.59H610C615.523 1194.59 620 1190.11 620 1184.59V10C620 4.47715 615.523 0 610 0Z" fill="#00AB2C"/>
<path d="M0 9.99999C0 4.47714 4.47715 0 10 0H610.673C616.196 0 620 4.47715 620 10V62.8732H0V9.99999Z" fill="#00B534"/>
<path d="M0 1131.72H620V1184.59C620 1190.11 615.523 1194.59 610 1194.59H9.99999C4.47714 1194.59 0 1190.11 0 1184.59V1131.72Z" fill="#00B534"/>
<path d="M620 125.746H0V188.619H620V125.746Z" fill="#00B534"/>
<path d="M620 251.492H0V314.365H620V251.492Z" fill="#00B534"/>
<path d="M620 377.238H0V440.111H620V377.238Z" fill="#00B534"/>
<path d="M620 628.734H0V691.607H620V628.734Z" fill="#00B534"/>
<path d="M620 880.227H0V943.1H620V880.227Z" fill="#00B534"/>
<path d="M620 754.477H0V817.35H620V754.477Z" fill="#00B534"/>
<path d="M620 502.984H0V565.857H620V502.984Z" fill="#00B534"/>
<path d="M620 1005.97H0V1068.84H620V1005.97Z" fill="#00B534"/>
<g opacity="0.4">
<path d="M239.268 599.043C239.268 560.516 270.607 529.184 309.143 529.184C347.646 529.184 378.986 560.516 378.986 599.043C378.986 637.569 347.646 668.902 309.143 668.902C270.607 668.87 239.268 637.537 239.268 599.043ZM373.166 599.043C373.166 563.745 344.448 535.003 309.143 535.003C273.837 535.003 245.088 563.713 245.088 599.043C245.088 634.34 273.805 663.083 309.143 663.083C344.448 663.051 373.166 634.34 373.166 599.043Z" fill="white"/>
<path d="M539.923 68.0469H545.57C545.57 78.414 553.992 86.8282 564.368 86.8282V92.4698C550.903 92.4698 539.923 81.5 539.923 68.0469Z" fill="white"/>
<path d="M55.2852 92.4698V86.8282C65.6618 86.8282 74.0837 78.3899 74.0837 68.0469H79.7305C79.7305 81.5 68.7506 92.4698 55.2852 92.4698Z" fill="white"/>
<path d="M252.9 193.246H257.509C257.509 219.815 281.327 241.417 310.623 241.417C339.895 241.417 363.713 219.815 363.713 193.246H368.322C368.322 222.346 342.428 246.022 310.623 246.022C278.769 246.022 252.9 222.346 252.9 193.246Z" fill="white"/>
<path d="M147.158 196.814V65.8516H471.705V196.814H147.158ZM151.55 70.2395V192.426H467.313V70.2395H151.55Z" fill="white"/>
<path d="M214.921 124.845V66.3555H403.944V124.845H214.921ZM218.275 69.7067V121.518H400.614V69.7067H218.275Z" fill="white"/>
<path d="M259.128 69.2516V36.6797H359.733V69.2516H259.128ZM261.566 39.0906V66.8166H357.32V39.0906H261.566Z" fill="white"/>
<path d="M52.3945 1135.18V62.875H567.606V1135.21H52.3945V1135.18ZM58.8618 71.7133V1126.37H561.163V71.7133H58.8618Z" fill="white"/>
<path d="M539.927 1130.04C539.927 1116.57 550.907 1105.6 564.372 1105.6V1111.26C553.996 1111.26 545.574 1119.7 545.574 1130.04H539.927Z" fill="white"/>
<path d="M55.291 1111.26V1105.62C68.7806 1105.62 79.7364 1116.59 79.7364 1130.07H74.0896C74.0896 1119.68 65.6435 1111.26 55.291 1111.26Z" fill="white"/>
<path d="M252.904 1004.85C252.904 975.746 278.797 952.07 310.603 952.07C342.409 952.07 368.302 975.746 368.302 1004.85H363.693C363.693 978.277 339.875 956.675 310.603 956.675C281.331 956.675 257.489 978.277 257.489 1004.85H252.904Z" fill="white"/>
<path d="M147.16 1132.24V1001.28H471.707V1132.24H147.16ZM151.552 1005.67V1127.85H467.315V1005.67H151.552Z" fill="white"/>
<path d="M214.919 1131.71V1073.22H403.943V1131.71H214.919ZM218.274 1076.57V1128.38H400.613V1076.57H218.274Z" fill="white"/>
<path d="M259.131 1161.41V1128.84H359.736V1161.41H259.131ZM261.568 1131.27V1159H357.323V1131.27H261.568Z" fill="white"/>
<path d="M564.394 595.551H55.626V602.012H564.394V595.551Z" fill="white"/>
</g>
<rect width="620" height="62.8732" fill="#00B534"/>
<rect y="1177.51" width="620" height="17.0811" fill="#00B534"/>
</g>
<defs>
<clipPath id="clip0_7_1829">
<rect width="620" height="1195" fill="white"/>
</clipPath>
</defs>
</svg>
