<?xml version="1.0" encoding="utf-8"?>
<!-- Generator: Adobe Illustrator 25.2.0, SVG Export Plug-In . SVG Version: 6.00 Build 0)  -->
<svg version="1.1" id="Layer_1" xmlns="http://www.w3.org/2000/svg" xmlns:xlink="http://www.w3.org/1999/xlink" x="0px" y="0px"
	 viewBox="0 0 18 16" style="enable-background:new 0 0 18 16;" xml:space="preserve">
<style type="text/css">
	.st0{fill-rule:evenodd;clip-rule:evenodd;}
</style>
<path class="st0" d="M5.7,2.4c2.2-1.3,4.4-1.9,6.1-1.9c1.4,0,2.4,0.5,2.9,1.3C15.1,2.7,15,3.8,14.4,5c-0.8,1.4-2.5,3-4.7,4.3
	c-2.2,1.3-4.4,1.9-6.1,1.9c-1.4,0-2.4-0.5-2.9-1.3C0.3,9,0.4,7.9,1,6.7C1.8,5.3,3.5,3.7,5.7,2.4z M15.8,3.8l1.5,2.7
	c0.5,0.8,0.4,1.9-0.3,3.2c-0.8,1.4-2.5,3-4.7,4.3c-2.2,1.3-4.4,1.9-6.1,1.9c-1.4,0-2.4-0.5-2.9-1.3l-1.5-2.7C2.1,11.9,2.4,12,2.6,12
	c1.8,0.3,4.7-0.3,7.5-1.9c2.8-1.6,4.8-3.8,5.4-5.6C15.7,4.3,15.7,4.1,15.8,3.8z"/>
</svg>
