<svg width="29" height="33" viewBox="0 0 29 33" fill="none" xmlns="http://www.w3.org/2000/svg">
<g filter="url(#filter0_d_13780_3403)">
<path d="M21.4432 17.7115C21.3051 18.9576 21.9569 21.1393 21.7153 22.5465L21.6923 22.6614C21.5237 23.4398 21.8265 26.7909 22.095 27.9105C20.3696 29.1375 17.6588 29.9312 14.5876 29.9312C13.4098 29.9347 12.235 29.8126 11.0831 29.5668C9.48812 29.2179 8.11162 28.6429 7.08425 27.9105C7.19932 27.4351 7.38716 24.8202 7.45614 24.3524C7.54811 23.712 7.58266 23.1139 7.48302 22.6614C7.29896 21.8026 7.48691 21.193 7.63253 19.84C7.72073 18.9847 7.78971 18.2071 7.73606 17.7082C7.72073 17.5702 7.7054 17.413 7.69007 17.2366C7.64409 16.742 7.60188 16.1324 7.56355 15.5419C7.51368 14.8058 7.47158 14.1002 7.44848 13.7091C7.43737 13.5058 7.43315 13.387 7.43315 13.387L6.84242 14.51C6.62393 14.4717 6.40155 14.4256 6.18705 14.3758C4.98459 14.0694 3.82146 13.6254 2.7207 13.0526C2.7207 13.0526 3.95913 9.63247 4.1092 8.93089C4.25827 8.23719 4.4 4.62166 6.8271 4.04638C8.57171 3.63228 10.3009 2.74664 11.2092 2.1638C11.2186 2.15954 11.2276 2.15441 11.2361 2.14847C11.5351 1.95675 11.7421 1.83745 11.8265 1.74592L11.8533 1.71904C11.8602 1.70713 11.8693 1.69671 11.8802 1.68838C11.8958 1.67079 11.9124 1.65414 11.93 1.63851C12.1831 1.42379 12.5818 1.56564 13.0458 1.72282C13.5634 1.89532 14.5948 1.86855 14.5948 1.86855C14.5948 1.86855 15.63 1.89543 16.1477 1.72282C16.6619 1.55031 17.0913 1.35481 17.3408 1.68449C17.5903 2.01418 19.9555 3.47899 22.3671 4.05405C24.7942 4.62922 24.9361 8.24486 25.0856 8.93877C25.239 9.63657 26.4741 13.0605 26.4741 13.0605C26.4741 13.0605 24.4458 14.1647 22.3523 14.5213L21.7618 13.3981C21.7618 13.3981 21.6659 15.1465 21.5585 16.5416C21.5122 16.9907 21.4776 17.4048 21.4432 17.7115Z" fill="#7CC4EB"/>
</g>
<path fill-rule="evenodd" clip-rule="evenodd" d="M17.1036 2.56132C17.2026 2.41687 17.2782 2.25772 17.3276 2.08974C17.1051 1.97195 16.5748 2.09558 16.2288 2.24843C15.7419 2.45937 14.5874 2.41994 14.5874 2.41994C14.5874 2.41994 13.4716 2.45848 12.9846 2.24743C12.6273 2.0901 12.0738 1.96131 11.8651 2.0994C11.8661 2.10346 11.8672 2.10751 11.8683 2.11156C11.9077 2.27154 11.9746 2.42346 12.066 2.56054C12.6795 3.54204 13.4924 4.47 14.585 5.02973C13.9989 5.03167 13.4209 4.89265 12.8997 4.6244C12.3786 4.35614 11.9296 3.96652 11.5906 3.48839L11.5561 3.4424C11.3562 3.15482 11.1841 2.84046 11.165 2.49922C11.1621 2.39251 11.1732 2.28588 11.1982 2.18209C11.2019 2.17839 11.2065 2.17567 11.2112 2.17293C11.2161 2.17001 11.2211 2.16706 11.2251 2.16287C11.2824 2.12543 11.3426 2.08835 11.403 2.05114C11.4642 2.01343 11.5256 1.9756 11.5844 1.93715C11.5936 1.93109 11.6027 1.9251 11.6116 1.91919C11.721 1.84621 11.8196 1.77074 11.8888 1.68945C11.8882 1.6911 11.8876 1.69275 11.887 1.6944C11.9035 1.67438 11.9221 1.65613 11.9424 1.63994C12.1872 1.43723 12.5626 1.5633 13.0176 1.71614L13.0395 1.72347C13.5566 1.90031 14.5869 1.87287 14.5869 1.87287C14.5869 1.87287 15.6461 1.89997 16.1599 1.72747C16.2124 1.70963 16.264 1.69153 16.3146 1.67378L16.3146 1.67377C16.6541 1.55466 16.949 1.45121 17.1752 1.54807C17.216 1.56732 17.254 1.59206 17.2881 1.62161C17.2958 1.63085 17.3035 1.64001 17.3113 1.64907L17.309 1.64258C17.3214 1.6589 17.335 1.67529 17.3497 1.69171C17.3995 1.74509 17.4532 1.79484 17.5103 1.84055C17.5744 1.89091 17.6396 1.93974 17.706 1.987C17.7852 2.04211 17.8668 2.09558 17.9443 2.14621C17.9483 2.1504 17.9533 2.15335 17.9582 2.15627C17.9629 2.15901 17.9675 2.16172 17.9712 2.16543C17.9963 2.27512 18.0075 2.38752 18.0046 2.5C17.9855 2.84124 17.8134 3.15559 17.6135 3.44318L17.5791 3.48917C17.24 3.96729 16.791 4.35691 16.2699 4.62518C15.7487 4.89343 15.1706 5.03244 14.5845 5.03051C15.6773 4.47078 16.4902 3.54293 17.1036 2.56132Z" fill="black" fill-opacity="0.1"/>
<defs>
<filter id="filter0_d_13780_3403" x="0.720703" y="0.505859" width="27.7534" height="32.4253" filterUnits="userSpaceOnUse" color-interpolation-filters="sRGB">
<feFlood flood-opacity="0" result="BackgroundImageFix"/>
<feColorMatrix in="SourceAlpha" type="matrix" values="0 0 0 0 0 0 0 0 0 0 0 0 0 0 0 0 0 0 127 0" result="hardAlpha"/>
<feOffset dy="1"/>
<feGaussianBlur stdDeviation="1"/>
<feComposite in2="hardAlpha" operator="out"/>
<feColorMatrix type="matrix" values="0 0 0 0 0 0 0 0 0 0 0 0 0 0 0 0 0 0 0.3 0"/>
<feBlend mode="normal" in2="BackgroundImageFix" result="effect1_dropShadow_13780_3403"/>
<feBlend mode="normal" in="SourceGraphic" in2="effect1_dropShadow_13780_3403" result="shape"/>
</filter>
</defs>
</svg>
