<svg width="29" height="34" viewBox="0 0 29 34" fill="none" xmlns="http://www.w3.org/2000/svg">
<g filter="url(#filter0_d_13780_3241)">
<path d="M21.388 18.1217C21.2499 19.3678 21.9017 21.5495 21.6601 22.9566L21.6372 23.0716C21.4685 23.8499 21.7713 27.2011 22.0398 28.3207C20.3144 29.5477 17.6036 30.3413 14.5324 30.3413C13.3546 30.3449 12.1798 30.2228 11.0279 29.977C9.43294 29.6281 8.05645 29.053 7.02907 28.3207C7.14415 27.8452 7.33198 25.2303 7.40096 24.7626C7.49294 24.1222 7.52748 23.524 7.42785 23.0716C7.24379 22.2127 7.43173 21.6031 7.57736 20.2502C7.66556 19.3949 7.73454 18.6173 7.68088 18.1183C7.66556 17.9804 7.65023 17.8232 7.6349 17.6468C7.58891 17.1522 7.5467 16.5426 7.50838 15.9521C7.4585 15.2159 7.4164 14.5104 7.3933 14.1192C7.38219 13.916 7.37797 13.7971 7.37797 13.7971L6.78725 14.9201C6.56875 14.8818 6.34637 14.8357 6.13188 14.7859C4.92941 14.4796 3.76628 14.0356 2.66553 13.4628C2.66553 13.4628 3.90395 10.0426 4.05402 9.34104C4.20309 8.64735 4.34483 5.03182 6.77192 4.45654C8.51654 4.04243 10.2457 3.15679 11.154 2.57396C11.1634 2.56969 11.1724 2.56456 11.1809 2.55863C11.4799 2.36691 11.687 2.24761 11.7713 2.15608L11.7982 2.1292C11.805 2.11729 11.8141 2.10687 11.825 2.09854C11.8406 2.08095 11.8573 2.0643 11.8748 2.04866C12.128 1.83395 12.5266 1.9758 12.9906 2.13297C13.5082 2.30548 14.5396 2.27871 14.5396 2.27871C14.5396 2.27871 15.5749 2.30559 16.0925 2.13297C16.6067 1.96047 17.0361 1.76497 17.2856 2.09465C17.5351 2.42433 19.9003 3.88914 22.312 4.4642C24.7391 5.03937 24.8809 8.65501 25.0304 9.34893C25.1838 10.0467 26.4189 13.4707 26.4189 13.4707C26.4189 13.4707 24.3906 14.5749 22.2971 14.9315L21.7066 13.8082C21.7066 13.8082 21.6107 15.5566 21.5033 16.9518C21.457 17.4009 21.4224 17.815 21.388 18.1217Z" fill="#123853"/>
</g>
<path fill-rule="evenodd" clip-rule="evenodd" d="M17.0485 2.97147C17.1475 2.82701 17.223 2.66784 17.2724 2.49985C17.0499 2.38214 16.5196 2.50576 16.1737 2.65859C15.6868 2.86953 14.5323 2.83009 14.5323 2.83009C14.5323 2.83009 13.4165 2.86864 12.9295 2.65759C12.5722 2.50024 12.0185 2.37143 11.8099 2.50961C11.8109 2.51365 11.812 2.51769 11.8131 2.52171C11.8525 2.68169 11.9194 2.83362 12.0108 2.9707C12.6243 3.9522 13.4372 4.88016 14.5299 5.43989C13.9437 5.44182 13.3657 5.30281 12.8446 5.03456C12.3234 4.76629 11.8744 4.37667 11.5354 3.89854L11.5009 3.85256C11.301 3.56497 11.1289 3.25062 11.1098 2.90938C11.1069 2.80267 11.1181 2.69604 11.143 2.59225C11.1468 2.58854 11.1514 2.58582 11.156 2.58309C11.161 2.58016 11.166 2.57722 11.1699 2.57303C11.2273 2.53559 11.2874 2.4985 11.3478 2.4613C11.5341 2.34653 11.7221 2.23064 11.8336 2.09961C11.833 2.10132 11.8324 2.10302 11.8317 2.10473C11.8318 2.1047 11.8318 2.10467 11.8318 2.10463C11.8484 2.08458 11.867 2.0663 11.8874 2.05009C12.1322 1.84738 12.5075 1.97346 12.9626 2.1263L12.9844 2.13363C13.5016 2.31046 14.5318 2.28303 14.5318 2.28303C14.5318 2.28303 15.591 2.31013 16.1048 2.13762C16.1573 2.11979 16.2089 2.10169 16.2595 2.08394L16.2595 2.08393C16.599 1.96482 16.8939 1.86137 17.1201 1.95823C17.1609 1.97747 17.1989 2.00222 17.2331 2.03177C17.2406 2.04094 17.2483 2.05003 17.2561 2.05902L17.2539 2.05273C17.2655 2.06815 17.2783 2.08363 17.2921 2.09914C17.3426 2.15356 17.3972 2.20422 17.4552 2.2507C17.5208 2.30222 17.5876 2.35214 17.6555 2.40041C17.7332 2.45437 17.8131 2.50673 17.8891 2.55637C17.8931 2.56056 17.8981 2.5635 17.903 2.56642C17.9077 2.56916 17.9123 2.57188 17.916 2.57559C17.9411 2.68528 17.9523 2.79768 17.9494 2.91016C17.9303 3.25139 17.7583 3.56575 17.5583 3.85334L17.5239 3.89932C17.1849 4.37745 16.7358 4.76706 16.2147 5.03533C15.6935 5.30358 15.1155 5.4426 14.5293 5.44066C15.6221 4.88093 16.435 3.95309 17.0485 2.97147Z" fill="#3184BF"/>
<defs>
<filter id="filter0_d_13780_3241" x="0.665527" y="0.916016" width="27.7534" height="32.4253" filterUnits="userSpaceOnUse" color-interpolation-filters="sRGB">
<feFlood flood-opacity="0" result="BackgroundImageFix"/>
<feColorMatrix in="SourceAlpha" type="matrix" values="0 0 0 0 0 0 0 0 0 0 0 0 0 0 0 0 0 0 127 0" result="hardAlpha"/>
<feOffset dy="1"/>
<feGaussianBlur stdDeviation="1"/>
<feComposite in2="hardAlpha" operator="out"/>
<feColorMatrix type="matrix" values="0 0 0 0 0 0 0 0 0 0 0 0 0 0 0 0 0 0 0.3 0"/>
<feBlend mode="normal" in2="BackgroundImageFix" result="effect1_dropShadow_13780_3241"/>
<feBlend mode="normal" in="SourceGraphic" in2="effect1_dropShadow_13780_3241" result="shape"/>
</filter>
</defs>
</svg>
