<svg width="52" height="60" viewBox="0 0 52 60" fill="none" xmlns="http://www.w3.org/2000/svg">
<g filter="url(#filter0_d_7730_2384)">
<path d="M38.4145 31.7882C38.1607 34.0787 39.3588 38.089 38.9147 40.6755L38.8724 40.8869C38.5625 42.3175 39.1191 48.4774 39.6126 50.5354C36.4411 52.7907 31.4583 54.2496 25.8129 54.2496C23.648 54.2562 21.4885 54.0317 19.3713 53.5799C16.4394 52.9386 13.9092 51.8815 12.0208 50.5354C12.2323 49.6615 12.5776 44.8549 12.7044 43.9951C12.8734 42.818 12.9369 41.7185 12.7538 40.8869C12.4155 39.3081 12.7609 38.1876 13.0286 35.7007C13.1907 34.1285 13.3175 32.6993 13.2189 31.7821C13.1907 31.5285 13.1626 31.2396 13.1344 30.9153C13.0499 30.0061 12.9723 28.8856 12.9018 27.8002C12.8101 26.4471 12.7328 25.1501 12.6903 24.4312C12.6699 24.0576 12.6621 23.8391 12.6621 23.8391L11.5763 25.9033C11.1747 25.8329 10.7659 25.7482 10.3716 25.6567C8.16133 25.0935 6.02334 24.2774 4 23.2245C4 23.2245 6.2764 16.9378 6.55224 15.6482C6.82625 14.3731 7.08679 7.72727 11.5481 6.66983C14.755 5.90864 17.9334 4.28072 19.603 3.20939C19.6203 3.20155 19.6368 3.19212 19.6524 3.18121C20.2021 2.8288 20.5827 2.60951 20.7376 2.44127L20.787 2.39185C20.7996 2.36997 20.8164 2.35081 20.8364 2.3355C20.8651 2.30317 20.8957 2.27256 20.9279 2.24382C21.3932 1.84915 22.126 2.10988 22.9789 2.3988C23.9304 2.71589 25.8262 2.66668 25.8262 2.66668C25.8262 2.66668 27.7291 2.71609 28.6806 2.3988C29.6258 2.08171 30.4151 1.72235 30.8737 2.32835C31.3323 2.93436 35.6799 5.62688 40.1128 6.68391C44.5742 7.74116 44.8349 14.3872 45.1097 15.6627C45.3917 16.9454 47.662 23.239 47.662 23.239C47.662 23.239 43.9336 25.2688 40.0855 25.9242L39.0001 23.8595C39.0001 23.8595 38.8239 27.0733 38.6264 29.6378C38.5413 30.4633 38.4778 31.2245 38.4145 31.7882Z" fill="#3793D4"/>
</g>
<path fill-rule="evenodd" clip-rule="evenodd" d="M31.978 3.17488C31.9549 3.16023 31.9318 3.14549 31.9087 3.13065C31.8489 3.09145 31.7882 3.05143 31.7273 3.01074C31.5425 2.88552 31.3622 2.75381 31.1866 2.61583C31.0657 2.51902 30.9531 2.41235 30.85 2.29694C30.8381 2.28257 30.8268 2.26822 30.816 2.25391L30.8186 2.26118C30.805 2.24541 30.7915 2.22948 30.7783 2.2134C30.7155 2.15908 30.6457 2.1136 30.5706 2.07823C30.1548 1.90018 29.6128 2.09034 28.9888 2.30928C28.8958 2.34192 28.8009 2.37519 28.7044 2.40798C27.7599 2.72507 25.813 2.67525 25.813 2.67525C25.813 2.67525 23.9193 2.72568 22.9686 2.40063L22.9285 2.38716C22.092 2.10622 21.4021 1.87448 20.9521 2.24709C20.9148 2.27677 20.8807 2.31023 20.8504 2.34693C20.8512 2.34457 20.8521 2.3422 20.853 2.33984C20.7517 2.45893 20.6159 2.57121 20.4632 2.6798C20.3693 2.74458 20.2613 2.81542 20.1436 2.89091C20.0828 2.929 20.0214 2.96687 19.96 3.00468C19.849 3.07306 19.7384 3.14123 19.633 3.21006C19.6258 3.21776 19.6166 3.22317 19.6075 3.22854C19.5989 3.23357 19.5904 3.23857 19.5836 3.24538C19.5377 3.43616 19.5172 3.63216 19.5226 3.82831C19.5577 4.45555 19.874 5.03338 20.2415 5.562L20.3048 5.64653C20.928 6.5254 21.7533 7.24157 22.7112 7.73468C23.6692 8.22776 24.7317 8.48329 25.8091 8.47973C23.8005 7.45087 22.3064 5.74515 21.1787 3.94102C21.0106 3.68905 20.8877 3.4098 20.8152 3.11573C20.8131 3.10789 20.8111 3.10004 20.8091 3.09218C21.1921 2.83747 22.2105 3.07434 22.8677 3.36374C23.7628 3.75169 25.8138 3.68083 25.8138 3.68083C25.8138 3.68083 27.9361 3.75332 28.831 3.36558C29.4669 3.08465 30.4418 2.8574 30.8506 3.07385C30.7599 3.38335 30.6208 3.67658 30.4385 3.94268C29.3108 5.74701 27.8166 7.45252 25.8079 8.48138C26.8853 8.48495 27.9479 8.22941 28.9059 7.73633C29.8638 7.24321 30.6891 6.52705 31.3123 5.64819L31.3756 5.56366C31.7432 5.03504 32.0594 4.45721 32.0946 3.82997C32.0998 3.62321 32.0792 3.4166 32.0331 3.21498C32.0263 3.20817 32.0178 3.20317 32.0093 3.19814C32.0001 3.19277 31.991 3.18736 31.9837 3.17966L31.977 3.1753L31.978 3.17488Z" fill="#3184BF"/>
<defs>
<filter id="filter0_d_7730_2384" x="0.507042" y="0.253521" width="50.6479" height="59.2359" filterUnits="userSpaceOnUse" color-interpolation-filters="sRGB">
<feFlood flood-opacity="0" result="BackgroundImageFix"/>
<feColorMatrix in="SourceAlpha" type="matrix" values="0 0 0 0 0 0 0 0 0 0 0 0 0 0 0 0 0 0 127 0" result="hardAlpha"/>
<feOffset dy="1.74648"/>
<feGaussianBlur stdDeviation="1.74648"/>
<feComposite in2="hardAlpha" operator="out"/>
<feColorMatrix type="matrix" values="0 0 0 0 0 0 0 0 0 0 0 0 0 0 0 0 0 0 0.3 0"/>
<feBlend mode="normal" in2="BackgroundImageFix" result="effect1_dropShadow_7730_2384"/>
<feBlend mode="normal" in="SourceGraphic" in2="effect1_dropShadow_7730_2384" result="shape"/>
</filter>
</defs>
</svg>
