<?xml version="1.0" encoding="utf-8"?>
<!-- Generator: Adobe Illustrator 27.3.1, SVG Export Plug-In . SVG Version: 6.00 Build 0)  -->
<svg version="1.1" id="Layer_1" xmlns="http://www.w3.org/2000/svg" xmlns:xlink="http://www.w3.org/1999/xlink" x="0px" y="0px"
	 viewBox="0 0 18 17" style="enable-background:new 0 0 18 17;" xml:space="preserve">
<style type="text/css">
	.st0{fill:#0C0101;}
</style>
<g>
	<path className="st0" d="M9.5,16.5h-7C1.6,16.5,1,15.8,1,15s0.7-1.5,1.5-1.5h7c0.8,0,1.5,0.7,1.5,1.5S10.3,16.5,9.5,16.5z"/>
</g>
<g>
	<path className="st0" d="M16.5,10h-14C1.6,10,1,9.3,1,8.5C1,7.7,1.6,7,2.5,7h14C17.3,7,18,7.7,18,8.5C18,9.3,17.3,10,16.5,10z"/>
</g>
<g>
	<path className="st0" d="M9.5,3.5h-7C1.6,3.5,1,2.8,1,2s0.7-1.5,1.5-1.5h7C10.3,0.5,11,1.2,11,2S10.3,3.5,9.5,3.5z"/>
</g>
</svg>
