<svg width="14" height="14" viewBox="0 0 14 14" fill="none" xmlns="http://www.w3.org/2000/svg">
<path d="M1.75955 9.91503C0.877805 8.3878 0.746304 6.63014 1.24938 5.07095C1.25323 5.0494 1.2604 5.02864 1.27088 5.00898C1.71943 3.66837 2.63809 2.4796 3.9557 1.71887C4.40201 1.4612 4.86793 1.26778 5.34287 1.13533C5.34919 1.13319 5.35575 1.13175 5.36236 1.13012C7.7812 0.464384 10.4275 1.38333 11.8915 3.50655C11.8947 3.51072 11.8986 3.5142 11.9016 3.51852C11.9045 3.52271 11.9062 3.52743 11.9088 3.53184C11.9936 3.65604 12.0756 3.78288 12.1519 3.91502C12.6041 4.69829 12.8577 5.54228 12.9309 6.38903C12.9663 6.44888 12.971 6.52158 12.9443 6.5847C13.0612 8.77001 11.9772 10.944 9.9557 12.1112C8.56565 12.9137 6.98495 13.0934 5.5366 12.7401C5.50863 12.7388 5.48112 12.7322 5.45572 12.7205C3.95069 12.3316 2.59628 11.3643 1.75955 9.91503ZM5.51296 12.2855C5.981 11.9872 6.76535 11.4467 7.31295 10.8583C8.86973 9.18555 9.7956 6.9978 9.89466 4.84384C9.64373 4.73359 9.38858 4.63551 9.13081 4.54685C9.18415 5.41714 8.75073 6.28126 7.90447 6.96299C7.34634 7.41271 6.69332 7.68762 6.0616 7.95375C5.68641 8.11175 5.29838 8.27514 4.9432 8.4713C4.03627 8.97493 3.413 9.74762 3.03064 10.8448C3.02959 10.8479 3.02724 10.8499 3.02599 10.853C3.72481 11.5496 4.58668 12.0368 5.51296 12.2855ZM2.13745 9.69684C2.30262 9.98291 2.49067 10.2475 2.6961 10.4922C3.11775 9.41135 3.79857 8.60511 4.73247 8.08944C5.10782 7.88196 5.50666 7.71401 5.89253 7.55152C6.52437 7.28532 7.12106 7.03387 7.63104 6.62321C8.10047 6.24502 8.83935 5.46371 8.6753 4.40254C6.90866 3.88924 5.03552 3.87747 3.37186 4.41003C2.77519 4.60101 2.10626 4.83874 1.65525 5.234C1.19954 6.67247 1.32531 8.29017 2.13745 9.69684ZM1.9398 4.51378C2.35243 4.28999 2.81322 4.13044 3.23867 3.99431C4.90757 3.46007 6.77549 3.44681 8.55283 3.9158C7.90388 2.00342 5.77656 1.61538 5.43003 1.56469C5.00019 1.68739 4.57824 1.86332 4.17388 2.09677C3.16438 2.67961 2.40732 3.53357 1.9398 4.51378ZM6.41757 1.37932C7.34245 1.71317 8.64283 2.45889 9.0494 4.06025C9.33786 4.15203 9.62247 4.25778 9.90309 4.37525C9.90107 4.18847 9.8949 4.00208 9.88 3.81685C9.82978 3.19082 9.75055 2.48311 9.46663 1.95354C8.52994 1.48139 7.47073 1.2785 6.41757 1.37932ZM10.7941 4.80002C10.8754 4.3223 11.1024 3.89161 11.4234 3.60079C11.0433 3.08761 10.5871 2.65531 10.079 2.31162C10.2216 2.78895 10.2773 3.30785 10.3152 3.78206C10.3363 4.04303 10.3415 4.30586 10.3381 4.56933C10.4918 4.64235 10.6437 4.71925 10.7941 4.80002ZM11.6721 3.96676C11.4347 4.20225 11.2672 4.54504 11.2137 4.92628C11.2088 4.96118 11.2068 4.99577 11.2039 5.03036C11.6376 5.29138 12.0471 5.58638 12.4276 5.9127C12.3166 5.3023 12.1015 4.70056 11.774 4.13321C11.7412 4.07652 11.7066 4.02177 11.6721 3.96676ZM12.507 6.57497C12.115 6.19714 11.6853 5.85625 11.2237 5.55721C11.2571 5.78922 11.3155 6.02188 11.3765 6.26161L11.4184 6.42788C11.5507 6.95932 11.7075 7.66172 11.7467 8.38075C11.7679 8.76794 11.7622 9.33608 11.6336 9.92293C12.2699 8.92939 12.5772 7.75346 12.507 6.57497ZM10.6366 11.0872C11.3305 10.241 11.3399 8.93074 11.3111 8.40436C11.2738 7.72196 11.1227 7.04587 10.995 6.53292L10.9535 6.36891C10.8641 6.0173 10.773 5.65673 10.761 5.27766C10.6155 5.19555 10.4682 5.11752 10.3192 5.04331C10.1731 7.24089 9.21568 9.45458 7.63245 11.1557C7.18128 11.6406 6.58614 12.0893 6.11476 12.4112C7.32277 12.5972 8.5991 12.3907 9.73759 11.7334C10.0642 11.5447 10.3641 11.3275 10.6366 11.0872Z" fill="#8064E6" stroke="#8064E6" stroke-width="0.5"/>
</svg>
