<svg width="13" height="16" viewBox="0 0 13 16" fill="none" xmlns="http://www.w3.org/2000/svg">
<path fill-rule="evenodd" clip-rule="evenodd" d="M6.34044 1.52864C6.99151 1.52864 7.61666 1.64352 8.19681 1.85384V1.78238C8.19681 0.799568 7.39724 0 6.41446 0H6.26675C5.28394 0 4.48438 0.799568 4.48438 1.78238V1.85293C5.06421 1.64324 5.68917 1.52864 6.34044 1.52864ZM4.12891 14.5547C4.50449 15.4038 5.35449 15.9981 6.34111 15.9981C7.32774 15.9981 8.1777 15.4038 8.55332 14.5547H4.12891ZM0.481904 13.6186H12.1993C12.421 13.6186 12.624 13.4691 12.6701 13.2523C12.7158 13.0375 12.6179 12.8257 12.4194 12.734C12.3723 12.7034 12.0177 12.4555 11.6627 11.7053C11.0107 10.3277 10.8739 8.38719 10.8739 7.00185C10.8739 6.99584 10.8738 6.98983 10.8735 6.98385C10.8639 4.49246 8.83408 2.46875 6.34044 2.46875C3.84088 2.46875 1.80731 4.50226 1.80731 7.00185C1.80731 8.38719 1.67046 10.3277 1.01848 11.7053C0.663485 12.4555 0.3089 12.7034 0.261791 12.734C0.0632764 12.8257 -0.0345723 13.0376 0.0110654 13.2523C0.0571727 13.4691 0.260226 13.6186 0.481904 13.6186Z" fill="#D9D9D9"/>
</svg>
