<?xml version="1.0" encoding="utf-8"?>
<!-- Generator: Adobe Illustrator 27.3.1, SVG Export Plug-In . SVG Version: 6.00 Build 0)  -->
<svg version="1.1" id="Layer_1" xmlns="http://www.w3.org/2000/svg" xmlns:xlink="http://www.w3.org/1999/xlink" x="0px" y="0px"
	 viewBox="0 0 20 22" style="enable-background:new 0 0 20 22;" xml:space="preserve">
<style type="text/css">
	.st0{fill-rule:evenodd;clip-rule:evenodd;fill:#8064E6;}
	.st1{fill:#8064E6;}
</style>
<g>
	<path className="st0" d="M3.7,11.7c0,0.5,0.4,0.8,0.8,0.8c0.5,0,0.8-0.4,0.8-0.8c0-0.5-0.4-0.8-0.8-0.8C4.1,10.9,3.7,11.3,3.7,11.7z
		 M7.3,11.7c0,0.5,0.4,0.8,0.8,0.8c0.5,0,0.8-0.4,0.8-0.8c0-0.5-0.4-0.8-0.8-0.8C7.7,10.9,7.3,11.3,7.3,11.7z M11.7,12.6
		c-0.5,0-0.8-0.4-0.8-0.8c0-0.5,0.4-0.8,0.8-0.8c0.5,0,0.8,0.4,0.8,0.8C12.6,12.2,12.2,12.6,11.7,12.6z M14.5,11.7
		c0,0.5,0.4,0.8,0.8,0.8c0.5,0,0.8-0.4,0.8-0.8c0-0.5-0.4-0.8-0.8-0.8C14.9,10.9,14.5,11.3,14.5,11.7z M4.5,15.7
		c-0.5,0-0.8-0.4-0.8-0.8c0-0.5,0.4-0.8,0.8-0.8c0.5,0,0.8,0.4,0.8,0.8C5.4,15.3,5,15.7,4.5,15.7z M7.3,14.8c0,0.5,0.4,0.8,0.8,0.8
		c0.5,0,0.8-0.4,0.8-0.8C9,14.4,8.6,14,8.1,14C7.7,14,7.3,14.4,7.3,14.8z M11.7,15.7c-0.5,0-0.8-0.4-0.8-0.8c0-0.5,0.4-0.8,0.8-0.8
		c0.5,0,0.8,0.4,0.8,0.8C12.6,15.3,12.2,15.7,11.7,15.7z M14.5,14.8c0,0.5,0.4,0.8,0.8,0.8c0.5,0,0.8-0.4,0.8-0.8
		c0-0.5-0.4-0.8-0.8-0.8C14.9,14,14.5,14.4,14.5,14.8z M4.5,18.7c-0.5,0-0.8-0.4-0.8-0.8c0-0.5,0.4-0.8,0.8-0.8
		c0.5,0,0.8,0.4,0.8,0.8C5.4,18.3,5,18.7,4.5,18.7z M7.3,17.8c0,0.5,0.4,0.8,0.8,0.8c0.5,0,0.8-0.4,0.8-0.8C9,17.4,8.6,17,8.1,17
		C7.7,17,7.3,17.4,7.3,17.8z M11.7,18.7c-0.5,0-0.8-0.4-0.8-0.8c0-0.5,0.4-0.8,0.8-0.8c0.5,0,0.8,0.4,0.8,0.8
		C12.6,18.3,12.2,18.7,11.7,18.7z"/>
</g>
<g>
	<path className="st1" d="M17,21.8H3c-1.5,0-2.8-1.2-2.8-2.8V5c0-1.5,1.2-2.8,2.8-2.8h14c1.5,0,2.8,1.2,2.8,2.8v14
		C19.8,20.5,18.5,21.8,17,21.8z M3,3.8C2.3,3.8,1.8,4.3,1.8,5v14c0,0.7,0.6,1.2,1.2,1.2h14c0.7,0,1.2-0.6,1.2-1.2V5
		c0-0.7-0.6-1.2-1.2-1.2H3z"/>
</g>
<g>
	<path className="st1" d="M14,5.8c-0.4,0-0.8-0.3-0.8-0.8V1c0-0.4,0.3-0.8,0.8-0.8s0.8,0.3,0.8,0.8v4C14.8,5.4,14.4,5.8,14,5.8z"/>
</g>
<g>
	<path className="st1" d="M6,5.8C5.6,5.8,5.2,5.4,5.2,5V1c0-0.4,0.3-0.8,0.8-0.8S6.8,0.6,6.8,1v4C6.8,5.4,6.4,5.8,6,5.8z"/>
</g>
<g>
	<path className="st1" d="M19,9.8H1C0.6,9.8,0.2,9.4,0.2,9S0.6,8.2,1,8.2h18c0.4,0,0.8,0.3,0.8,0.8S19.4,9.8,19,9.8z"/>
</g>
</svg>
