<svg width="18" height="20" viewBox="0 0 18 20" fill="none" xmlns="http://www.w3.org/2000/svg">
<path d="M11.5333 2H3.42466C2.04672 2 0.929688 3.11704 0.929688 4.49497V16.9698C0.929688 18.3478 2.04672 19.4648 3.42466 19.4648H11.5333C12.9112 19.4648 14.0283 18.3478 14.0283 16.9698V4.49497C14.0283 3.11704 12.9112 2 11.5333 2Z" fill="#FFE600"/>
<path d="M14.5333 0H6.42466C5.04672 0 3.92969 1.11704 3.92969 2.49497V14.9698C3.92969 16.3478 5.04672 17.4648 6.42466 17.4648H14.5333C15.9112 17.4648 17.0283 16.3478 17.0283 14.9698V2.49497C17.0283 1.11704 15.9112 0 14.5333 0Z" fill="#CE1124"/>
</svg>
