<svg width="19" height="15" viewBox="0 0 19 15" fill="none" xmlns="http://www.w3.org/2000/svg">
<path d="M8.46354 11.4456H11.6354V10.5388H8.9375L9.26563 9.88599H14.8802C15.0625 9.88599 15.2448 9.95852 15.3906 10.1036C15.5365 10.2487 15.6094 10.43 15.6094 10.6114V11.8808C15.6094 13.3316 14.4063 14.5285 12.9479 14.5285H8.35417C7.55208 14.5285 6.89583 13.8756 6.89583 13.0777V11.6995H7.80729C8.0625 11.6632 8.28125 11.5906 8.46354 11.4456ZM12.2917 13.8756H12.9844C14.0052 13.8756 14.8802 13.0777 14.9896 12.0984H12.2917V13.8756ZM12.2917 11.4456H14.9531V10.6114C14.9531 10.5751 14.9531 10.5751 14.9167 10.5751L14.8802 10.5388H12.2552V11.4456H12.2917ZM7.58854 13.0777C7.58854 13.5129 7.95312 13.8756 8.39062 13.8756H11.6719V12.0984H7.625V13.0777H7.58854Z" fill="#8064E6"/>
<path d="M8.13607 0.528442C11.8548 0.528442 14.8809 3.43 15.0996 7.05694H1.20898C1.39127 3.43 4.41732 0.528442 8.13607 0.528442Z" fill="#8064E6"/>
<path d="M1.0625 7.41968H17.6875C17.9062 7.41968 18.125 7.60102 18.125 7.85491C18.125 8.1088 17.9427 8.29014 17.6875 8.29014H9.77604C9.73958 8.21761 9.70312 8.14507 9.66667 8.07253C9.48437 7.81864 9.19271 7.63729 8.90104 7.63729H6.23958C5.83854 7.63729 5.47396 7.92745 5.36458 8.29014H1.0625C0.84375 8.29014 0.625 8.1088 0.625 7.85491C0.625 7.60102 0.807291 7.41968 1.0625 7.41968Z" fill="#8064E6"/>
<path d="M6.23843 8H8.89989C9.30093 8 9.5926 8.43523 9.4103 8.79793L8.35301 11.0104C8.24364 11.1917 8.06135 11.3368 7.8426 11.3368H6.23843C5.94676 11.3368 5.69155 11.0829 5.69155 10.7927V8.58031C5.69155 8.21762 5.94676 8 6.23843 8ZM7.18635 10.1399C7.51447 10.1399 7.80614 9.84974 7.80614 9.52332C7.80614 9.19689 7.51447 8.90674 7.18635 8.90674C6.85822 8.90674 6.56655 9.19689 6.56655 9.52332C6.56655 9.88601 6.85822 10.1399 7.18635 10.1399Z" fill="#8064E6"/>
</svg>
