<svg width="22" height="20" viewBox="0 0 22 20" fill="none" xmlns="http://www.w3.org/2000/svg">
<path d="M8.39435 10.5919L1.07169 2.09688C0.623551 1.57699 0.994562 0.773193 1.68267 0.773193H20.5733C21.2652 0.773193 21.6348 1.58467 21.179 2.10292L13.7086 10.5965V18.424C13.7086 19.0373 13.0451 19.4235 12.5084 19.1225L8.80436 17.0453C8.55107 16.9032 8.39435 16.6363 8.39435 16.3468V10.5919ZM3.38202 2.36795L9.71664 9.83129C9.84111 9.97795 9.90954 10.1648 9.90954 10.3581V15.9917L11.9897 17.1764V10.3581C11.9897 10.162 12.0601 9.97268 12.1879 9.8252L18.6461 2.36795H3.38202Z" fill="white"/>
</svg>
