<svg width="16" height="16" viewBox="0 0 16 16" fill="none" xmlns="http://www.w3.org/2000/svg">
<path d="M8 0C3.58176 0 0 3.58176 0 8C0 12.4182 3.58176 16 8 16C12.4182 16 16 12.4182 16 8C16 3.58176 12.4182 0 8 0ZM7.86144 15.3566L7.90864 15.1808L6.02544 13.2979L3.65216 13.9336C2.81328 13.3171 2.11008 12.5274 1.59424 11.6174L2.1488 9.54848L0.64112 8.0408C0.64096 8.0272 0.64 8.01376 0.64 8C0.64 6.93424 0.8696 5.9216 1.27888 5.00624L3.52112 4.4056L4.2104 1.83328L4.12416 1.74704C4.95328 1.2312 5.8912 0.87472 6.89584 0.72304L6.78128 1.15008L8.66464 3.03312L11.2368 2.34384L11.461 1.50672C12.5344 2.08112 13.4496 2.9136 14.123 3.92128L13.1242 4.18896L12.4349 6.76096L14.3179 8.64416L15.3509 8.36736C15.2875 9.65024 14.8933 10.847 14.2531 11.876L13.6347 11.2576L11.0626 11.9469L10.3728 14.5187L10.6989 14.8451C9.86256 15.1762 8.95264 15.36 8 15.36C7.95344 15.36 7.90768 15.3573 7.86144 15.3566Z" fill="#2D2D3F"/>
<path d="M5.3885 6.27131L4.69922 8.84331L6.58226 10.7262L9.15426 10.0371L9.8437 7.46507L7.9605 5.58203L5.3885 6.27131Z" fill="#2D2D3F"/>
</svg>
