<svg width="19" height="19" viewBox="0 0 19 19" fill="none" xmlns="http://www.w3.org/2000/svg">
<path d="M18.4218 9.32614C18.4218 14.1489 14.5122 18.0585 9.68943 18.0585C4.86666 18.0585 0.957031 14.1489 0.957031 9.32614C0.957031 4.50338 4.86666 0.59375 9.68943 0.59375C14.5122 0.59375 18.4218 4.50338 18.4218 9.32614Z" fill="white"/>
<path d="M9.68986 1.5625C5.40299 1.5625 1.92773 5.03776 1.92773 9.32463C1.92773 13.6115 5.40299 17.0868 9.68986 17.0868C13.9767 17.0868 17.452 13.6115 17.452 9.32463C17.452 5.03776 13.9767 1.5625 9.68986 1.5625ZM9.55542 16.4625L9.60122 16.2919L7.77401 14.465L5.4713 15.0818C4.65736 14.4837 3.97507 13.7174 3.47457 12.8345L4.01264 10.8271L2.54979 9.36422C2.54964 9.35102 2.5487 9.33798 2.5487 9.32463C2.5487 8.29056 2.77148 7.30803 3.16859 6.41989L5.34416 5.8371L6.01294 3.34127L5.92927 3.25759C6.73373 2.75709 7.64377 2.41121 8.61853 2.26404L8.50738 2.67838L10.3347 4.50543L12.8304 3.83665L13.0479 3.02442C14.0894 3.58174 14.9774 4.38947 15.6308 5.36718L14.6617 5.62691L13.9929 8.12243L15.8199 9.94964L16.8222 9.68107C16.7607 10.9258 16.3782 12.087 15.7571 13.0854L15.157 12.4854L12.6614 13.1542L11.9921 15.6495L12.3085 15.9662C11.497 16.2874 10.6142 16.4658 9.68986 16.4658C9.64469 16.4658 9.60029 16.4631 9.55542 16.4625Z" fill="#2D2D3F"/>
<path d="M7.15511 7.64925L6.48633 10.1448L8.31338 11.9717L10.8089 11.303L11.4778 8.80752L9.65064 6.98047L7.15511 7.64925Z" fill="#2D2D3F"/>
</svg>
