<svg width="12" height="13" viewBox="0 0 12 13" fill="none" xmlns="http://www.w3.org/2000/svg">
<path d="M6 0.689941C2.68632 0.689941 0 3.37626 0 6.68994C0 10.0036 2.68632 12.6899 6 12.6899C9.31368 12.6899 12 10.0036 12 6.68994C12 3.37626 9.31368 0.689941 6 0.689941ZM5.89608 12.2074L5.93148 12.0755L4.51908 10.6634L2.73912 11.1401C2.10996 10.6778 1.58256 10.0855 1.19568 9.40302L1.6116 7.8513L0.48084 6.72054C0.48072 6.71034 0.48 6.70026 0.48 6.68994C0.48 5.89062 0.6522 5.13114 0.95916 4.44462L2.64084 3.99414L3.1578 2.0649L3.09312 2.00022C3.71496 1.61334 4.4184 1.34598 5.17188 1.23222L5.08596 1.5525L6.49848 2.96478L8.4276 2.44782L8.59572 1.81998C9.4008 2.25078 10.0872 2.87514 10.5923 3.6309L9.84312 3.83166L9.32616 5.76066L10.7384 7.17306L11.5132 6.96546C11.4656 7.92762 11.17 8.82522 10.6898 9.59694L10.226 9.13314L8.29692 9.6501L7.7796 11.579L8.02416 11.8238C7.39692 12.0721 6.71448 12.2099 6 12.2099C5.96508 12.2099 5.93076 12.2079 5.89608 12.2074Z" fill="white"/>
<path d="M4.04089 5.39391L3.52393 7.32291L4.93621 8.73507L6.86521 8.21823L7.38229 6.28923L5.96989 4.87695L4.04089 5.39391Z" fill="white"/>
</svg>
