<svg width="22" height="20" viewBox="0 0 22 20" fill="none" xmlns="http://www.w3.org/2000/svg">
<path d="M3.50203 18.2192L3.73647 18.6608C3.59828 18.7342 3.44345 18.7757 3.28204 18.7757C2.92927 18.7757 2.59178 18.585 2.41786 18.2571C2.41781 18.257 2.41776 18.2569 2.4177 18.2568L2.35511 18.1389C1.57157 18.1003 0.902284 17.5958 0.642064 16.8599L0.64097 16.8568L0.64098 16.8568C0.143803 15.4207 0.98144 13.9282 2.59875 12.4849C2.60767 12.4766 2.61533 12.4699 2.62072 12.4653C2.62405 12.4625 2.62729 12.4597 2.6301 12.4574L2.64553 12.442L2.6781 12.4185C3.0752 12.1319 3.52265 11.7491 4.01986 11.2783L4.2258 11.0834L4.78067 10.532C4.86145 10.4518 4.93596 10.3739 5.01589 10.2903C5.0697 10.2341 5.12597 10.1753 5.18825 10.1115L5.3658 9.92951L5.3569 9.92672L5.89748 9.34608C6.00949 9.22578 6.12238 9.09871 6.23542 8.96711L6.45064 8.71657L6.46108 8.71988L6.91314 8.1863C7.05707 8.01642 7.20512 7.84314 7.35294 7.67028C8.06335 6.02821 9.06499 4.667 10.3242 3.63609C10.5031 3.4866 10.7276 3.40691 10.9613 3.41335C11.3902 3.41537 12.0625 3.56849 13.6106 4.36011C14.7288 3.72285 15.1407 3.06072 15.148 2.37666C15.149 2.06015 15.3061 1.77262 15.5523 1.59456L15.5539 1.59341C15.837 1.39033 16.1922 1.29425 16.5879 1.25536C16.9859 1.21626 17.4687 1.23112 18.0444 1.28619C18.269 1.30659 18.4681 1.40387 18.6184 1.54209L18.6228 1.54621L18.6228 1.54624C19.7679 2.62533 20.6685 4.31316 21.4062 6.6311C21.63 7.32584 21.4463 8.06089 20.9326 8.57011C21.1445 9.03615 20.952 9.59085 20.4953 9.82896C20.3577 9.90156 20.2037 9.94263 20.0432 9.94263C19.8382 9.94263 19.6391 9.87829 19.4742 9.7604C18.615 10.4109 17.5698 11.1356 16.3387 11.9347C16.4742 12.3787 16.2742 12.8633 15.8595 13.0832C15.721 13.1567 15.5662 13.198 15.4044 13.198C15.1629 13.198 14.9285 13.1081 14.7491 12.945C13.6665 13.6218 12.4698 14.3447 11.1634 15.1114C11.2737 15.5432 11.0735 16.0038 10.6724 16.2167C10.6723 16.2167 10.6723 16.2167 10.6722 16.2168L10.438 15.775C10.3675 15.8124 10.2875 15.8315 10.218 15.8315C10.0841 15.8315 9.95634 15.7759 9.86617 15.6756L3.50203 18.2192ZM3.50203 18.2192L3.73532 18.6614C3.97699 18.5339 4.14059 18.3233 4.21352 18.0856C4.37025 18.0717 4.5249 18.055 4.67725 18.0351L4.67966 18.0397C4.67995 18.0402 4.68023 18.0408 4.68052 18.0413C4.85329 18.3765 5.19194 18.5696 5.5462 18.5696C5.708 18.5696 5.86286 18.5283 6.00149 18.4547C6.31649 18.2876 6.50758 17.9677 6.52171 17.6289M3.50203 18.2192C3.4316 18.2566 3.35682 18.2757 3.28204 18.2757C3.10815 18.2757 2.94382 18.1818 2.85948 18.0227M6.52171 17.6289L1.11346 16.6932C1.31084 17.2514 1.8221 17.627 2.41771 17.6409H2.65681L2.85948 18.0227M6.52171 17.6289C7.08585 17.4424 7.59608 17.2041 8.04477 16.9116C8.55687 16.6209 9.05469 16.3362 9.53897 16.0564L6.52171 17.6289ZM2.85948 18.0227L2.65681 18.1301L2.63674 18.1409H2.65681V18.1303L2.85948 18.0227ZM12.3443 9.80555L12.3803 9.78411C14.7609 8.36789 16.1315 7.55247 17.3255 6.49477L12.3443 9.80555ZM9.9941 6.8082C10.3477 6.29058 10.7547 5.81371 11.2181 5.38987C11.3665 5.4362 11.5472 5.50515 11.7477 5.59085C11.8113 5.61804 11.8754 5.64624 11.9392 5.67498C11.311 6.17523 10.6618 6.5522 9.9941 6.8082Z" fill="white" stroke="white"/>
<path fill-rule="evenodd" clip-rule="evenodd" d="M2.65681 17.6409H2.41771C1.8221 17.627 1.31084 17.2514 1.11346 16.6932C0.723933 15.5681 1.33866 14.2776 2.93765 12.8526C2.94722 12.8431 2.96113 12.8335 2.97069 12.8239C3.39239 12.5196 3.85758 12.1205 4.36361 11.6414L6.02433 12.1666C6.07128 12.1805 6.12258 12.1901 6.16954 12.1901C6.37126 12.1901 6.55907 12.0588 6.61992 11.8571C6.69992 11.6041 6.55906 11.3363 6.31039 11.2571L5.13309 10.8867C5.2696 10.7511 5.40525 10.605 5.54611 10.4607L7.29553 11.0093C7.34248 11.0232 7.39378 11.0328 7.44073 11.0328C7.64245 11.0328 7.83026 10.9015 7.89112 10.6954C7.97024 10.4467 7.83025 10.1798 7.58158 10.0998L6.26343 9.68679C6.38081 9.56071 6.4982 9.42854 6.6147 9.29292L8.26064 9.81373C8.30759 9.82765 8.35455 9.83721 8.40584 9.83721C8.60756 9.83721 8.79451 9.70592 8.85623 9.50419C8.93622 9.25031 8.79971 8.98338 8.5467 8.90338L7.29463 8.50951C7.45375 8.3217 7.61808 8.12955 7.78241 7.93739C8.4667 6.32882 9.43358 5.01078 10.6431 4.02115C10.7318 3.94637 10.8405 3.90898 10.9527 3.91333C11.2718 3.91333 11.8952 4.0255 13.6168 4.92629C14.9767 4.21418 15.6384 3.3786 15.648 2.37964C15.648 2.22922 15.7227 2.08836 15.8453 1.99968C16.2114 1.7371 16.8722 1.67624 17.9982 1.78405C18.106 1.79362 18.2043 1.84057 18.2799 1.91013C19.3355 2.90484 20.2032 4.49951 20.9301 6.78372C21.104 7.32281 20.9483 7.8906 20.5214 8.27056C20.451 8.33142 20.3806 8.39229 20.311 8.45315L20.4605 8.74356C20.5875 8.97309 20.4979 9.26437 20.2632 9.38611C20.1927 9.4235 20.118 9.44263 20.0432 9.44263C19.8693 9.44263 19.7058 9.34872 19.6215 9.18874L19.5554 9.06701C18.5659 9.84173 17.2808 10.7373 15.6957 11.7546L15.827 11.9989C15.9487 12.2337 15.8548 12.5197 15.6253 12.6414C15.5549 12.6788 15.4801 12.698 15.4044 12.698C15.2314 12.698 15.0671 12.6041 14.9827 12.4406L14.8888 12.2667C13.6037 13.0779 12.1456 13.9596 10.5223 14.9073L10.6397 15.1325C10.7614 15.3672 10.6675 15.6533 10.438 15.775C10.3675 15.8124 10.2875 15.8315 10.218 15.8315C10.0441 15.8315 9.88062 15.7376 9.79628 15.5742L9.69803 15.3864C9.0833 15.7437 8.44596 16.1089 7.78427 16.4845C7.26345 16.8263 6.64002 17.0941 5.92182 17.2862L5.96877 17.3706C6.0905 17.6053 5.99659 17.8914 5.76705 18.0131C5.69662 18.0505 5.62184 18.0696 5.5462 18.0696C5.37317 18.0696 5.20884 17.9757 5.1245 17.8114L4.95582 17.4879C4.56629 17.554 4.15414 17.5958 3.72288 17.6192C3.81157 17.8444 3.72288 18.1027 3.50203 18.2192C3.4316 18.2566 3.35682 18.2757 3.28204 18.2757C3.10815 18.2757 2.94382 18.1818 2.85948 18.0227L2.65681 17.6409ZM12.843 5.5541C12.3317 5.29674 11.5439 4.9211 11.084 4.84112C10.1788 5.61498 9.47021 6.56706 8.93635 7.61837C10.3293 7.37404 11.6379 6.68009 12.843 5.5541ZM17.0739 2.64664C16.8766 2.64664 16.6844 2.6562 16.5435 2.68402C16.5201 2.94138 16.4635 3.18572 16.3792 3.41091C17.4017 5.66641 17.0496 6.0742 16.9983 6.11671C15.8401 7.14358 14.5079 7.93656 12.0875 9.37653C11.4919 9.73303 10.8311 10.1269 10.0946 10.5677C9.09125 11.1729 5.96717 13.3014 6.43149 16.1585C6.73147 16.0368 7.01752 15.8907 7.27577 15.7177L7.30359 15.7038L7.33142 15.6846L7.34098 15.6803C7.28012 13.4944 9.99558 11.7407 10.5868 11.3841C11.3232 10.9433 11.9797 10.5494 12.5753 10.1972C14.963 8.77564 16.4018 7.91838 17.6261 6.83415C18.5043 6.06552 17.8434 4.25084 17.0739 2.64664Z" fill="black"/>
</svg>
