<svg width="24" height="25" viewBox="0 0 24 25" fill="none" xmlns="http://www.w3.org/2000/svg">
<g clip-path="url(#clip0_354_40)">
<g clip-path="url(#clip1_354_40)">
<path d="M8.33421 12.1602C8.33421 10.1352 9.97539 8.4932 12.0004 8.4932C14.0255 8.4932 15.6675 10.1352 15.6675 12.1602C15.6675 14.1852 14.0255 15.8272 12.0004 15.8272C9.97539 15.8272 8.33421 14.1852 8.33421 12.1602ZM6.35185 12.1602C6.35185 15.2798 8.88072 17.8086 12.0004 17.8086C15.1202 17.8086 17.649 15.2798 17.649 12.1602C17.649 9.04056 15.1202 6.51179 12.0004 6.51179C8.88072 6.51179 6.35185 9.04056 6.35185 12.1602ZM16.5526 6.28783C16.5525 6.5489 16.6298 6.80414 16.7748 7.02127C16.9197 7.2384 17.1258 7.40767 17.367 7.50768C17.6082 7.60768 17.8736 7.63393 18.1297 7.5831C18.3857 7.53227 18.621 7.40665 18.8057 7.22211C18.9904 7.03758 19.1162 6.80243 19.1672 6.5464C19.2183 6.29036 19.1922 6.02494 19.0924 5.78371C18.9926 5.54247 18.8235 5.33624 18.6065 5.19111C18.3895 5.04598 18.1343 4.96846 17.8732 4.96836C17.5232 4.96852 17.1871 5.10757 16.9396 5.35497C16.6921 5.60237 16.5529 5.93789 16.5526 6.28783ZM7.55626 21.1139C6.48376 21.0651 5.90083 20.8865 5.51344 20.7355C4.99985 20.5356 4.6334 20.2975 4.24812 19.9127C3.86284 19.528 3.62435 19.1619 3.42529 18.6484C3.27428 18.2612 3.09563 17.6781 3.04687 16.6056C2.99354 15.4461 2.9829 15.0978 2.9829 12.1603C2.9829 9.22272 2.99442 8.87538 3.04687 7.71493C3.09572 6.64247 3.27568 6.06053 3.42529 5.67218C3.62523 5.15862 3.86337 4.79218 4.24812 4.40692C4.63287 4.02166 4.99897 3.78318 5.51344 3.58412C5.90065 3.43311 6.48376 3.25447 7.55626 3.20572C8.7158 3.15239 9.06412 3.14174 12.0004 3.14174C14.9368 3.14174 15.2854 3.15327 16.4459 3.20572C17.5184 3.25456 18.1004 3.43452 18.4888 3.58412C19.0024 3.78318 19.3688 4.02218 19.7541 4.40692C20.1394 4.79166 20.377 5.15862 20.5769 5.67218C20.7279 6.05938 20.9066 6.64247 20.9553 7.71493C21.0087 8.87538 21.0193 9.22272 21.0193 12.1603C21.0193 15.0978 21.0087 15.4452 20.9553 16.6056C20.9065 17.6781 20.727 18.261 20.5769 18.6484C20.377 19.1619 20.1388 19.5284 19.7541 19.9127C19.3693 20.2971 19.0024 20.5356 18.4888 20.7355C18.1015 20.8865 17.5184 21.0652 16.4459 21.1139C15.2864 21.1673 14.9381 21.1779 12.0004 21.1779C9.0628 21.1779 8.71545 21.1673 7.55626 21.1139ZM7.46518 1.22678C6.29412 1.2801 5.4939 1.46578 4.79506 1.7377C4.07132 2.01851 3.45864 2.39524 2.8464 3.00649C2.23416 3.61774 1.85839 4.23136 1.57757 4.95507C1.30564 5.65432 1.11995 6.45406 1.06662 7.62508C1.01241 8.79794 1 9.17291 1 12.1602C1 15.1474 1.01241 15.5224 1.06662 16.6953C1.11995 17.8664 1.30564 18.666 1.57757 19.3653C1.85839 20.0886 2.23425 20.7029 2.8464 21.3139C3.45856 21.9249 4.07132 22.3011 4.79506 22.5827C5.49522 22.8546 6.29412 23.0403 7.46518 23.0936C8.63871 23.1469 9.01307 23.1602 12.0004 23.1602C14.9878 23.1602 15.3628 23.1478 16.5357 23.0936C17.7069 23.0403 18.5065 22.8546 19.2058 22.5827C19.9291 22.3011 20.5422 21.9251 21.1545 21.3139C21.7667 20.7026 22.1417 20.0886 22.4233 19.3653C22.6952 18.666 22.8818 17.8663 22.9343 16.6953C22.9876 15.5215 23 15.1474 23 12.1602C23 9.17291 22.9876 8.79794 22.9343 7.62508C22.8809 6.45398 22.6952 5.65388 22.4233 4.95507C22.1417 4.2318 21.7658 3.6187 21.1545 3.00649C20.5432 2.39427 19.9291 2.01851 19.2067 1.7377C18.5065 1.46578 17.7068 1.27922 16.5366 1.22678C15.3637 1.17345 14.9887 1.16016 12.0013 1.16016C9.01395 1.16016 8.63871 1.17257 7.46518 1.22678Z" fill="white" fill-opacity="0.5"/>
<path d="M8.33421 12.1602C8.33421 10.1352 9.97539 8.4932 12.0004 8.4932C14.0255 8.4932 15.6675 10.1352 15.6675 12.1602C15.6675 14.1852 14.0255 15.8272 12.0004 15.8272C9.97539 15.8272 8.33421 14.1852 8.33421 12.1602ZM6.35185 12.1602C6.35185 15.2798 8.88072 17.8086 12.0004 17.8086C15.1202 17.8086 17.649 15.2798 17.649 12.1602C17.649 9.04056 15.1202 6.51179 12.0004 6.51179C8.88072 6.51179 6.35185 9.04056 6.35185 12.1602ZM16.5526 6.28783C16.5525 6.5489 16.6298 6.80414 16.7748 7.02127C16.9197 7.2384 17.1258 7.40767 17.367 7.50768C17.6082 7.60768 17.8736 7.63393 18.1297 7.5831C18.3857 7.53227 18.621 7.40665 18.8057 7.22211C18.9904 7.03758 19.1162 6.80243 19.1672 6.5464C19.2183 6.29036 19.1922 6.02494 19.0924 5.78371C18.9926 5.54247 18.8235 5.33624 18.6065 5.19111C18.3895 5.04598 18.1343 4.96846 17.8732 4.96836C17.5232 4.96852 17.1871 5.10757 16.9396 5.35497C16.6921 5.60237 16.5529 5.93789 16.5526 6.28783ZM7.55626 21.1139C6.48376 21.0651 5.90083 20.8865 5.51344 20.7355C4.99985 20.5356 4.6334 20.2975 4.24812 19.9127C3.86284 19.528 3.62435 19.1619 3.42529 18.6484C3.27428 18.2612 3.09563 17.6781 3.04687 16.6056C2.99354 15.4461 2.9829 15.0978 2.9829 12.1603C2.9829 9.22272 2.99442 8.87538 3.04687 7.71493C3.09572 6.64247 3.27568 6.06053 3.42529 5.67218C3.62523 5.15862 3.86337 4.79218 4.24812 4.40692C4.63287 4.02166 4.99897 3.78318 5.51344 3.58412C5.90065 3.43311 6.48376 3.25447 7.55626 3.20572C8.7158 3.15239 9.06412 3.14174 12.0004 3.14174C14.9368 3.14174 15.2854 3.15327 16.4459 3.20572C17.5184 3.25456 18.1004 3.43452 18.4888 3.58412C19.0024 3.78318 19.3688 4.02218 19.7541 4.40692C20.1394 4.79166 20.377 5.15862 20.5769 5.67218C20.7279 6.05938 20.9066 6.64247 20.9553 7.71493C21.0087 8.87538 21.0193 9.22272 21.0193 12.1603C21.0193 15.0978 21.0087 15.4452 20.9553 16.6056C20.9065 17.6781 20.727 18.261 20.5769 18.6484C20.377 19.1619 20.1388 19.5284 19.7541 19.9127C19.3693 20.2971 19.0024 20.5356 18.4888 20.7355C18.1015 20.8865 17.5184 21.0652 16.4459 21.1139C15.2864 21.1673 14.9381 21.1779 12.0004 21.1779C9.0628 21.1779 8.71545 21.1673 7.55626 21.1139ZM7.46518 1.22678C6.29412 1.2801 5.4939 1.46578 4.79506 1.7377C4.07132 2.01851 3.45864 2.39524 2.8464 3.00649C2.23416 3.61774 1.85839 4.23136 1.57757 4.95507C1.30564 5.65432 1.11995 6.45406 1.06662 7.62508C1.01241 8.79794 1 9.17291 1 12.1602C1 15.1474 1.01241 15.5224 1.06662 16.6953C1.11995 17.8664 1.30564 18.666 1.57757 19.3653C1.85839 20.0886 2.23425 20.7029 2.8464 21.3139C3.45856 21.9249 4.07132 22.3011 4.79506 22.5827C5.49522 22.8546 6.29412 23.0403 7.46518 23.0936C8.63871 23.1469 9.01307 23.1602 12.0004 23.1602C14.9878 23.1602 15.3628 23.1478 16.5357 23.0936C17.7069 23.0403 18.5065 22.8546 19.2058 22.5827C19.9291 22.3011 20.5422 21.9251 21.1545 21.3139C21.7667 20.7026 22.1417 20.0886 22.4233 19.3653C22.6952 18.666 22.8818 17.8663 22.9343 16.6953C22.9876 15.5215 23 15.1474 23 12.1602C23 9.17291 22.9876 8.79794 22.9343 7.62508C22.8809 6.45398 22.6952 5.65388 22.4233 4.95507C22.1417 4.2318 21.7658 3.6187 21.1545 3.00649C20.5432 2.39427 19.9291 2.01851 19.2067 1.7377C18.5065 1.46578 17.7068 1.27922 16.5366 1.22678C15.3637 1.17345 14.9887 1.16016 12.0013 1.16016C9.01395 1.16016 8.63871 1.17257 7.46518 1.22678Z" fill="white" fill-opacity="0.5"/>
</g>
</g>
<defs>
<clipPath id="clip0_354_40">
<rect width="24" height="24" fill="white" transform="translate(0 0.160156)"/>
</clipPath>
<clipPath id="clip1_354_40">
<rect width="24" height="24" fill="white" transform="translate(0 0.160156)"/>
</clipPath>
</defs>
</svg>
