<svg width="18" height="19" viewBox="0 0 18 19" fill="none" xmlns="http://www.w3.org/2000/svg">
<mask id="mask0_354_49" style="mask-type:luminance" maskUnits="userSpaceOnUse" x="0" y="0" width="18" height="19">
<path d="M18 0.160156H0V18.1602H18V0.160156Z" fill="white"/>
</mask>
<g mask="url(#mask0_354_49)">
<path d="M4.05001 18.1602H0.225V6.12266H4.05001V18.1602ZM2.1375 4.43516C0.9 4.43516 0 3.53516 0 2.29766C0 1.06016 1.0125 0.160156 2.1375 0.160156C3.375 0.160156 4.275 1.06016 4.275 2.29766C4.275 3.53516 3.375 4.43516 2.1375 4.43516ZM18 18.1602H14.175V11.6352C14.175 9.72266 13.3875 9.16016 12.2625 9.16016C11.1375 9.16016 10.0125 10.0602 10.0125 11.7477V18.1602H6.18747V6.12266H9.78747V7.81016C10.125 7.02266 11.475 5.78516 13.3875 5.78516C15.525 5.78516 17.775 7.02266 17.775 10.7352V18.1602H18Z" fill="white" fill-opacity="0.7"/>
</g>
</svg>
