<svg width="21" height="21" viewBox="0 0 21 21" fill="none" xmlns="http://www.w3.org/2000/svg">
<path opacity="0.5" fill-rule="evenodd" clip-rule="evenodd" d="M16.8476 0.120165V18.81C16.8476 19.2816 17.006 19.7162 17.271 20.0646L3.17219 20.0646C3.00914 20.0646 2.84987 20.048 2.69596 20.0166C1.60824 19.7938 0.787955 18.8247 0.787955 17.6658V0.120165H16.8476ZM20.2119 6.25225V18.81C20.2119 19.5327 19.6272 20.1202 18.9092 20.1202C18.8209 20.1202 18.7347 20.1113 18.6514 20.0944C18.0568 19.9735 17.6081 19.4438 17.6081 18.8102V6.25225H20.2119ZM3.06587 8.95513H8.55305C8.76245 8.95513 8.93294 8.78464 8.93294 8.57525V2.26341C8.93294 2.05402 8.76245 1.88353 8.55305 1.88353H3.06587C2.85648 1.88353 2.68599 2.05402 2.68599 2.26341V8.57525C2.68599 8.78464 2.85648 8.95513 3.06587 8.95513ZM10.8242 2.2999H15.2625C15.4719 2.2999 15.6424 2.55141 15.6424 2.86031C15.6424 3.16921 15.4719 3.42072 15.2625 3.42072H10.8242C10.6148 3.42072 10.4443 3.16921 10.4443 2.86031C10.4443 2.55141 10.6148 2.2999 10.8242 2.2999ZM15.2625 4.33887H10.8242C10.6148 4.33887 10.4443 4.59037 10.4443 4.89927C10.4443 5.20818 10.6148 5.45968 10.8242 5.45968H15.2625C15.4719 5.45968 15.6424 5.20818 15.6424 4.89927C15.6424 4.59037 15.4719 4.33887 15.2625 4.33887ZM10.8242 6.37816H15.2625C15.4719 6.37816 15.6424 6.62967 15.6424 6.93857C15.6424 7.24747 15.4719 7.49898 15.2625 7.49898H10.8242C10.6148 7.49898 10.4443 7.24747 10.4443 6.93857C10.4443 6.62967 10.6148 6.37816 10.8242 6.37816ZM9.28561 12.0471H2.73562C2.52622 12.0471 2.35574 12.2986 2.35574 12.6075C2.35574 12.9164 2.52622 13.1679 2.73562 13.1679H9.28561C9.495 13.1679 9.66549 12.9164 9.66549 12.6075C9.66549 12.2986 9.495 12.0471 9.28561 12.0471ZM11.6321 12.0471H14.9076C15.117 12.0471 15.2875 12.2986 15.2875 12.6075C15.2875 12.9164 15.117 13.1679 14.9076 13.1679H11.6321C11.4227 13.1679 11.2522 12.9164 11.2522 12.6075C11.2522 12.2986 11.4227 12.0471 11.6321 12.0471ZM9.28561 14.5803H2.73562C2.52622 14.5803 2.35574 14.8318 2.35574 15.1407C2.35574 15.4496 2.52622 15.7011 2.73562 15.7011H9.28561C9.495 15.7011 9.66549 15.4496 9.66549 15.1407C9.66549 14.8318 9.495 14.5803 9.28561 14.5803ZM11.6321 14.5803H14.9076C15.117 14.5803 15.2875 14.8318 15.2875 15.1407C15.2875 15.4496 15.117 15.7011 14.9076 15.7011H11.6321C11.4227 15.7011 11.2522 15.4496 11.2522 15.1407C11.2522 14.8318 11.4227 14.5803 11.6321 14.5803ZM9.28561 17.1135H2.73562C2.52622 17.1135 2.35574 17.365 2.35574 17.6739C2.35574 17.9828 2.52622 18.2344 2.73562 18.2344H9.28561C9.495 18.2344 9.66549 17.9828 9.66549 17.6739C9.66549 17.365 9.495 17.1135 9.28561 17.1135ZM11.6321 17.1135H14.9076C15.117 17.1135 15.2875 17.365 15.2875 17.6739C15.2875 17.9828 15.117 18.2344 14.9076 18.2344H11.6321C11.4227 18.2344 11.2522 17.9828 11.2522 17.6739C11.2522 17.365 11.4227 17.1135 11.6321 17.1135Z" fill="#808191"/>
</svg>
