<svg width="18" height="18" viewBox="0 0 18 18" fill="none" xmlns="http://www.w3.org/2000/svg">
<path d="M17.4648 8.73239C17.4648 13.5552 13.5552 17.4648 8.73239 17.4648C3.90963 17.4648 0 13.5552 0 8.73239C0 3.90963 3.90963 0 8.73239 0C13.5552 0 17.4648 3.90963 17.4648 8.73239Z" fill="white"/>
<path d="M8.73234 0.96875C4.44548 0.96875 0.970215 4.44401 0.970215 8.73088C0.970215 13.0177 4.44548 16.493 8.73234 16.493C13.0192 16.493 16.4945 13.0177 16.4945 8.73088C16.4945 4.44401 13.0192 0.96875 8.73234 0.96875ZM8.5979 15.8688L8.6437 15.6982L6.81649 13.8713L4.51378 14.488C3.69985 13.8899 3.01755 13.1236 2.51705 12.2408L3.05512 10.2333L1.59227 8.77047C1.59212 8.75727 1.59119 8.74423 1.59119 8.73088C1.59119 7.69681 1.81396 6.71428 2.21107 5.82614L4.38664 5.24335L5.05542 2.74752L4.97175 2.66384C5.77621 2.16334 6.68625 1.81746 7.66101 1.67029L7.54986 2.08463L9.37722 3.91168L11.8729 3.2429L12.0904 2.43067C13.1319 2.98799 14.0199 3.79572 14.6733 4.77343L13.7041 5.03316L13.0354 7.52868L14.8624 9.35589L15.8647 9.08732C15.8032 10.3321 15.4207 11.4933 14.7995 12.4916L14.1995 11.8916L11.7038 12.5604L11.0346 15.0558L11.351 15.3725C10.5395 15.6937 9.65666 15.872 8.73234 15.872C8.68717 15.872 8.64277 15.8694 8.5979 15.8688Z" fill="#CE1124"/>
<path d="M6.19808 7.0555L5.5293 9.55103L7.35635 11.3779L9.85187 10.7093L10.5208 8.21377L8.69361 6.38672L6.19808 7.0555Z" fill="#CE1124"/>
</svg>
