<svg width="19" height="30" viewBox="0 0 19 30" fill="none" xmlns="http://www.w3.org/2000/svg">
<path d="M5.90012 6.18C5.90012 6.55333 5.81012 6.90333 5.63012 7.23C5.45678 7.55667 5.18012 7.82 4.80012 8.02C4.42678 8.22 3.95345 8.32 3.38012 8.32H2.21012V11H0.810117V4.02H3.38012C3.92012 4.02 4.38012 4.11333 4.76012 4.3C5.14012 4.48667 5.42345 4.74333 5.61012 5.07C5.80345 5.39667 5.90012 5.76667 5.90012 6.18ZM3.32012 7.19C3.70678 7.19 3.99345 7.10333 4.18012 6.93C4.36678 6.75 4.46012 6.5 4.46012 6.18C4.46012 5.5 4.08012 5.16 3.32012 5.16H2.21012V7.19H3.32012ZM8.2941 5.15V6.9H10.6441V8.01H8.2941V9.86H10.9441V11H6.8941V4.01H10.9441V5.15H8.2941ZM18.1864 11H16.7864L13.6164 6.21V11H12.2164V4.01H13.6164L16.7864 8.81V4.01H18.1864V11Z" fill="#2C3344"/>
<path d="M9.5 14C5.08176 14 1.5 17.5818 1.5 22C1.5 26.4182 5.08176 30 9.5 30C13.9182 30 17.5 26.4182 17.5 22C17.5 17.5818 13.9182 14 9.5 14ZM9.36144 29.3566L9.40864 29.1808L7.52544 27.2979L5.15216 27.9336C4.31328 27.3171 3.61008 26.5274 3.09424 25.6174L3.6488 23.5485L2.14112 22.0408C2.14096 22.0272 2.14 22.0138 2.14 22C2.14 20.9342 2.3696 19.9216 2.77888 19.0062L5.02112 18.4056L5.7104 15.8333L5.62416 15.747C6.45328 15.2312 7.3912 14.8747 8.39584 14.723L8.28128 15.1501L10.1646 17.0331L12.7368 16.3438L12.961 15.5067C14.0344 16.0811 14.9496 16.9136 15.623 17.9213L14.6242 18.189L13.9349 20.761L15.8179 22.6442L16.8509 22.3674C16.7875 23.6502 16.3933 24.847 15.7531 25.876L15.1347 25.2576L12.5626 25.9469L11.8728 28.5187L12.1989 28.8451C11.3626 29.1762 10.4526 29.36 9.5 29.36C9.45344 29.36 9.40768 29.3573 9.36144 29.3566Z" fill="#2D2D3F"/>
<path d="M6.8885 20.2733L6.19922 22.8453L8.08226 24.7281L10.6543 24.039L11.3437 21.467L9.4605 19.584L6.8885 20.2733Z" fill="#2D2D3F"/>
<circle cx="12.5" cy="25.002" r="5" fill="#00B534"/>
<path d="M10.5 25.3354L11.731 26.5665L14.8594 24.002" stroke="white" stroke-width="1.3" stroke-linecap="round" stroke-linejoin="round"/>
</svg>
