<svg width="22" height="20" viewBox="0 0 22 20" fill="none" xmlns="http://www.w3.org/2000/svg">
<path opacity="0.5" d="M10.819 0.404797C10.9946 -0.134932 11.7593 -0.134933 11.9349 0.404796L14.0114 6.78598C14.09 7.02735 14.3153 7.19077 14.5694 7.19077H21.2891C21.8575 7.19077 22.0938 7.91697 21.634 8.25054L16.1976 12.1943C15.992 12.3435 15.906 12.6079 15.9845 12.8493L18.061 19.2305C18.2366 19.7702 17.618 20.219 17.1581 19.8855L11.7218 15.9417C11.5162 15.7925 11.2377 15.7925 11.0321 15.9417L5.59576 19.8855C5.13595 20.219 4.51727 19.7702 4.6929 19.2305L6.7694 12.8493C6.84795 12.6079 6.7619 12.3435 6.55627 12.1943L1.11993 8.25054C0.660116 7.91697 0.896428 7.19077 1.46479 7.19077H8.18447C8.43865 7.19077 8.66392 7.02735 8.74246 6.78598L10.819 0.404797Z" fill="#808191"/>
</svg>
