<svg width="20" height="20" viewBox="0 0 20 20" fill="none" xmlns="http://www.w3.org/2000/svg">
<path d="M13.6118 3.93934C16.9561 5.87017 18.1037 10.1532 16.1699 13.5026C15.1779 15.2208 13.5623 16.3539 11.7741 16.7942C12.6842 15.206 13.177 13.9155 13.2756 12.977C13.3806 11.9331 13.0457 11.167 12.5576 10.5716C11.5786 9.38588 10.1473 8.77089 9.73912 6.84435C9.69649 6.0561 9.97285 5.50657 10.4556 5.00117C10.9404 4.50384 12.0955 3.99118 12.8335 3.55137C13.0967 3.6624 13.3561 3.79173 13.6118 3.93934ZM11.9655 3.24796C11.2718 3.61107 10.4208 4.08113 9.98083 4.53619C9.34893 5.32363 8.93266 6.04464 9.07065 6.96295C9.54048 9.18419 11.22 9.98338 12.0482 10.9934C12.4649 11.4999 12.7057 12.0275 12.6102 12.9133C12.5257 13.7918 11.9798 15.1743 10.9048 16.9536C9.47144 17.1216 7.97494 16.8439 6.62199 16.0696C5.76088 14.5497 5.47397 13.0273 5.57004 12.1759C5.66474 11.3033 6.08081 10.6299 6.51675 9.93388C6.95269 9.23785 7.42681 8.52295 7.48218 7.60038C7.5346 6.68293 7.1724 5.62154 6.10035 4.26623C7.79011 3.08728 9.94071 2.69258 11.9655 3.24796ZM5.57343 4.6711C6.5916 5.95439 6.8557 6.84323 6.81298 7.55492C6.76731 8.27173 6.38962 8.87867 5.95072 9.57981C5.51478 10.2758 5.01763 11.0661 4.90753 12.107C4.82132 12.8823 5.0029 14.0439 5.49843 15.2641C3.02741 13.1079 2.34796 9.44292 4.04556 6.5026C4.45888 5.7867 4.98234 5.17528 5.57343 4.6711Z" fill="#8064E6"/>
</svg>
