<svg width="13" height="16" viewBox="0 0 13 16" fill="none" xmlns="http://www.w3.org/2000/svg">
<path fill-rule="evenodd" clip-rule="evenodd" d="M6.34043 1.52864C6.99151 1.52864 7.61666 1.64352 8.19681 1.85384V1.78238C8.19681 0.799568 7.39724 0 6.41446 0H6.26675C5.28394 0 4.48438 0.799568 4.48438 1.78238V1.85293C5.06421 1.64324 5.68917 1.52864 6.34043 1.52864ZM4.12868 14.5565C4.50426 15.4056 5.35426 15.9999 6.34089 15.9999C7.32751 15.9999 8.17747 15.4056 8.55309 14.5565H4.12868ZM0.481904 13.6173H12.1993C12.421 13.6173 12.624 13.4677 12.6701 13.2509C12.7158 13.0362 12.6179 12.8243 12.4194 12.7326C12.3723 12.7021 12.0177 12.4541 11.6627 11.7039C11.0107 10.3264 10.8739 8.38581 10.8739 7.00047C10.8739 6.99446 10.8738 6.98845 10.8735 6.98247C10.8639 4.49108 8.83408 2.46737 6.34044 2.46737C3.84088 2.46737 1.80731 4.50088 1.80731 7.00047C1.80731 8.38581 1.67046 10.3264 1.01848 11.7039C0.663485 12.4541 0.3089 12.702 0.261791 12.7326C0.0632764 12.8243 -0.0345723 13.0362 0.0110654 13.2509C0.0571727 13.4678 0.260226 13.6173 0.481904 13.6173Z" fill="#8064E6"/>
</svg>
