<svg width="16" height="22" viewBox="0 0 16 22" fill="none" xmlns="http://www.w3.org/2000/svg">
<path d="M12.7233 10.4573L12.7233 15.4875L14.555 15.4875C14.9369 15.4875 15.1416 15.9358 14.8871 16.2235L10.7865 20.8498C10.6094 21.049 10.2995 21.049 10.1225 20.8498L5.99422 16.2235C5.73967 15.9358 5.94442 15.4875 6.32625 15.4875L8.15241 15.4875L8.15241 6.70537L9.98411 6.70537C10.3659 6.70537 10.5707 6.25713 10.3161 5.96937L6.21558 1.34863C6.0385 1.14942 5.7286 1.14942 5.55152 1.34863L1.42329 5.96937C1.16874 6.25713 1.37349 6.70537 1.75532 6.70537L3.58148 6.70537L3.58148 11.7356" stroke="#7B7B7B" stroke-miterlimit="10" stroke-linecap="round" stroke-linejoin="round"/>
<path d="M8.15339 11.7376L8.15339 6.70732L9.98508 6.70732C10.3669 6.70732 10.5717 6.25908 10.3171 5.97132L6.21656 1.35059C6.03947 1.15137 5.72958 1.15137 5.5525 1.35059L1.42427 5.97132C1.16971 6.25908 1.37446 6.70732 1.7563 6.70732L3.58246 6.70732L3.58246 11.7376" stroke="black" stroke-miterlimit="10" stroke-linecap="round" stroke-linejoin="round"/>
</svg>
