<svg width="16" height="16" viewBox="0 0 16 16" fill="none" xmlns="http://www.w3.org/2000/svg">
<g filter="url(#filter0_d_7631_6134)">
<path d="M13.9649 7.98247C13.9649 11.2865 11.2865 13.9649 7.98247 13.9649C4.67844 13.9649 2 11.2865 2 7.98247C2 4.67844 4.67844 2 7.98247 2C11.2865 2 13.9649 4.67844 13.9649 7.98247Z" fill="white"/>
</g>
<path d="M7.98181 2.66406C5.04493 2.66406 2.66406 5.04493 2.66406 7.98181C2.66406 10.9187 5.04493 13.2996 7.98181 13.2996C10.9187 13.2996 13.2996 10.9187 13.2996 7.98181C13.2996 5.04493 10.9187 2.66406 7.98181 2.66406ZM7.88971 12.8719L7.92108 12.755L6.66929 11.5034L5.09172 11.926C4.5341 11.5162 4.06667 10.9912 3.72378 10.3864L4.09241 9.01112L3.09023 8.00893C3.09012 7.99989 3.08948 7.99096 3.08948 7.98181C3.08948 7.27338 3.2421 6.60026 3.51416 5.9918L5.00462 5.59255L5.46279 3.88268L5.40547 3.82535C5.9566 3.48246 6.58005 3.24551 7.24786 3.14468L7.17171 3.42854L8.42361 4.68023L10.1334 4.22206L10.2824 3.66561C10.9959 4.04742 11.6043 4.60079 12.0519 5.27061L11.3879 5.44854L10.9298 7.1582L12.1815 8.41L12.8681 8.226C12.826 9.07876 12.5639 9.87429 12.1384 10.5583L11.7273 10.1472L10.0176 10.6054L9.55906 12.3149L9.77581 12.5319C9.21989 12.7519 8.61505 12.8741 7.98181 12.8741C7.95086 12.8741 7.92045 12.8723 7.88971 12.8719Z" fill="black"/>
<path d="M6.24724 6.84099L5.78906 8.55065L7.04075 9.80223L8.75041 9.34416L9.20869 7.6345L7.9569 6.38281L6.24724 6.84099Z" fill="black"/>
<circle cx="10.4697" cy="10.6181" r="2.33686" fill="white"/>
<path fill-rule="evenodd" clip-rule="evenodd" d="M10.4691 7C12.3843 7 13.9373 8.55328 13.9373 10.4688C13.9373 12.3843 12.3843 13.9375 10.4691 13.9375C8.55379 13.9375 7 12.3843 7 10.4688C7 8.55328 8.55328 7 10.4691 7ZM9.62641 9.20563C9.51002 9.08953 9.32203 9.08953 9.20565 9.20563C9.08927 9.32172 9.08926 9.51 9.20565 9.6261L10.0483 10.4688L9.20565 11.3114C9.08926 11.4275 9.08926 11.6155 9.20565 11.7319C9.32204 11.848 9.51002 11.848 9.62641 11.7319L10.4691 10.8892L11.3117 11.7319C11.4272 11.848 11.6161 11.848 11.7316 11.7319C11.848 11.6158 11.848 11.4275 11.7316 11.3114L10.889 10.4688L11.7316 9.6261C11.848 9.51 11.848 9.32172 11.7316 9.20563C11.6161 9.08953 11.4272 9.08953 11.3117 9.20563L10.4691 10.0483L9.62641 9.20563Z" fill="#AD2E41"/>
<defs>
<filter id="filter0_d_7631_6134" x="0" y="0" width="15.9648" height="15.9688" filterUnits="userSpaceOnUse" color-interpolation-filters="sRGB">
<feFlood flood-opacity="0" result="BackgroundImageFix"/>
<feColorMatrix in="SourceAlpha" type="matrix" values="0 0 0 0 0 0 0 0 0 0 0 0 0 0 0 0 0 0 127 0" result="hardAlpha"/>
<feOffset/>
<feGaussianBlur stdDeviation="1"/>
<feComposite in2="hardAlpha" operator="out"/>
<feColorMatrix type="matrix" values="0 0 0 0 0 0 0 0 0 0 0 0 0 0 0 0 0 0 0.5 0"/>
<feBlend mode="normal" in2="BackgroundImageFix" result="effect1_dropShadow_7631_6134"/>
<feBlend mode="normal" in="SourceGraphic" in2="effect1_dropShadow_7631_6134" result="shape"/>
</filter>
</defs>
</svg>
